<svg version="1.1" preserveAspectRatio="none" xmlns="http://www.w3.org/2000/svg" width="500" height="500" viewBox="0 0 500 500"><rect width="100%" height="100%" fill="#192537" fill-opacity="1"/><svg viewBox="-100.2006 97.1307 498.764 101.8664" width="333" height="68.01114595279532" x="83.5px" y="215.9944px" xmlns="http://www.w3.org/2000/svg" xmlns:xlink="http://www.w3.org/1999/xlink" preserveAspectRatio="none"><defs></defs><style>.companyName {fill:#E9E9E9;fill-opacity:1;}.icon1 {fill:#B09E80;fill-opacity:0.98;}.icon2 {fill:#E9E9E9;fill-opacity:1;}.icon3 {fill:#716551;fill-opacity:1;}.icon3-str {stroke:#716551;stroke-opacity:1;}.shapeStroke-str {stroke:#E9E9E9;stroke-opacity:1;}.text {fill:#B09E80;fill-opacity:1;}</style><g opacity="1" transform="rotate(0 -24.774 184.9971)">
<svg width="347.9108" height="14" x="-24.774" y="184.9971" version="1.1" preserveAspectRatio="none" viewBox="1.96 -30.12 772.36 31.080000000000002">
  <g transform="matrix(1 0 0 1 0 0)" class="text"><path id="id-6izo4zJp24" d="M19.12-23.76Q17.56-24.60 15.80-25.12Q14.04-25.64 12.48-25.64L12.48-25.64Q10.12-25.64 8.74-24.58Q7.36-23.52 7.36-21.68L7.36-21.68Q7.36-19.88 8.98-18.74Q10.60-17.60 13.60-16.48L13.60-16.48Q15.84-15.68 17.38-14.74Q18.92-13.80 19.94-12.14Q20.96-10.48 20.96-7.92L20.96-7.92Q20.96-5.60 19.80-3.72Q18.64-1.84 16.50-0.76Q14.36 0.32 11.48 0.32L11.48 0.32Q8.80 0.32 6.32-0.54Q3.84-1.40 1.96-2.72L1.96-2.72L3.68-5.80Q5.16-4.68 7.24-3.90Q9.32-3.12 11.12-3.12L11.12-3.12Q13.44-3.12 15.18-4.32Q16.92-5.52 16.92-7.88L16.92-7.88Q16.92-9.88 15.46-11.06Q14-12.24 11.36-13.28L11.36-13.28Q8.92-14.20 7.30-15.08Q5.68-15.96 4.52-17.50Q3.36-19.04 3.36-21.36L3.36-21.36Q3.36-24.76 5.74-26.86Q8.12-28.96 11.92-29.08L11.92-29.08Q16.60-29.08 20.60-26.76L20.60-26.76L19.12-23.76Z M33.64-14.44Q33.64-18.40 35.64-21.80Q37.64-25.20 41.02-27.22Q44.40-29.24 48.40-29.24L48.40-29.24Q52.36-29.24 55.76-27.22Q59.16-25.20 61.18-21.80Q63.20-18.40 63.20-14.44L63.20-14.44Q63.20-10.44 61.20-7.04Q59.20-3.64 55.78-1.66Q52.36 0.32 48.40 0.32L48.40 0.32Q44.40 0.32 41-1.64Q37.60-3.60 35.62-6.98Q33.64-10.36 33.64-14.44L33.64-14.44ZM37.64-14.40Q37.64-11.44 39.08-8.92Q40.52-6.40 43.02-4.92Q45.52-3.44 48.48-3.44L48.48-3.44Q51.44-3.44 53.90-4.90Q56.36-6.36 57.78-8.90Q59.20-11.44 59.20-14.44L59.20-14.44Q59.20-17.44 57.76-20Q56.32-22.56 53.84-24.04Q51.36-25.52 48.40-25.52L48.40-25.52Q45.44-25.52 42.96-24.02Q40.48-22.52 39.06-19.96Q37.64-17.40 37.64-14.40L37.64-14.40Z M77.72-28.92L81.60-28.92L81.60-3.76L96.32-3.76L96.32 0L77.72 0L77.72-28.92Z M114.12-10.24Q114.12-8.32 115.04-6.78Q115.96-5.24 117.54-4.34Q119.12-3.44 121.04-3.44L121.04-3.44Q123.04-3.44 124.66-4.32Q126.28-5.20 127.20-6.76Q128.12-8.32 128.12-10.24L128.12-10.24L128.12-28.92L131.92-28.92L131.92-10.12Q131.92-7.04 130.48-4.66Q129.04-2.28 126.56-0.98Q124.08 0.32 121.04 0.32L121.04 0.32Q118.04 0.32 115.56-0.98Q113.08-2.28 111.66-4.66Q110.24-7.04 110.24-10.12L110.24-10.12L110.24-28.92L114.12-28.92L114.12-10.24Z M145.76-28.92L164.96-28.92L164.96-25.20L157.20-25.20L157.20 0L153.32 0L153.32-25.20L145.76-25.20L145.76-28.92Z M179.16-28.92L183.04-28.92L183.04 0L179.16 0L179.16-28.92Z M197.56-14.44Q197.56-18.40 199.56-21.80Q201.56-25.20 204.94-27.22Q208.32-29.24 212.32-29.24L212.32-29.24Q216.28-29.24 219.68-27.22Q223.08-25.20 225.10-21.80Q227.12-18.40 227.12-14.44L227.12-14.44Q227.12-10.44 225.12-7.04Q223.12-3.64 219.70-1.66Q216.28 0.32 212.32 0.32L212.32 0.32Q208.32 0.32 204.92-1.64Q201.52-3.60 199.54-6.98Q197.56-10.36 197.56-14.44L197.56-14.44ZM201.56-14.40Q201.56-11.44 203-8.92Q204.44-6.40 206.94-4.92Q209.44-3.44 212.40-3.44L212.40-3.44Q215.36-3.44 217.82-4.90Q220.28-6.36 221.70-8.90Q223.12-11.44 223.12-14.44L223.12-14.44Q223.12-17.44 221.68-20Q220.24-22.56 217.76-24.04Q215.28-25.52 212.32-25.52L212.32-25.52Q209.36-25.52 206.88-24.02Q204.40-22.52 202.98-19.96Q201.56-17.40 201.56-14.40L201.56-14.40Z M262.96-28.92L266.84-28.92L266.84 0.96L266.72 0.96L245.48-20.60L245.56 0L241.64 0L241.64-29.80L241.84-29.80L263.04-8L262.96-28.92Z M298.12-23.76Q296.56-24.60 294.80-25.12Q293.04-25.64 291.48-25.64L291.48-25.64Q289.12-25.64 287.74-24.58Q286.36-23.52 286.36-21.68L286.36-21.68Q286.36-19.88 287.98-18.74Q289.60-17.60 292.60-16.48L292.60-16.48Q294.84-15.68 296.38-14.74Q297.92-13.80 298.94-12.14Q299.96-10.48 299.96-7.92L299.96-7.92Q299.96-5.60 298.80-3.72Q297.64-1.84 295.50-0.76Q293.36 0.32 290.48 0.32L290.48 0.32Q287.80 0.32 285.32-0.54Q282.84-1.40 280.96-2.72L280.96-2.72L282.68-5.80Q284.16-4.68 286.24-3.90Q288.32-3.12 290.12-3.12L290.12-3.12Q292.44-3.12 294.18-4.32Q295.92-5.52 295.92-7.88L295.92-7.88Q295.92-9.88 294.46-11.06Q293-12.24 290.36-13.28L290.36-13.28Q287.92-14.20 286.30-15.08Q284.68-15.96 283.52-17.50Q282.36-19.04 282.36-21.36L282.36-21.36Q282.36-24.76 284.74-26.86Q287.12-28.96 290.92-29.08L290.92-29.08Q295.60-29.08 299.60-26.76L299.60-26.76L298.12-23.76Z M352.72-28.92L357.48-28.92L346.64-9.64L346.64 0L342.76 0L342.76-9.64L332.04-28.92L336.84-28.92L344.80-14.04L352.72-28.92Z M366.60-14.44Q366.60-18.40 368.60-21.80Q370.60-25.20 373.98-27.22Q377.36-29.24 381.36-29.24L381.36-29.24Q385.32-29.24 388.72-27.22Q392.12-25.20 394.14-21.80Q396.16-18.40 396.16-14.44L396.16-14.44Q396.16-10.44 394.16-7.04Q392.16-3.64 388.74-1.66Q385.32 0.32 381.36 0.32L381.36 0.32Q377.36 0.32 373.96-1.64Q370.56-3.60 368.58-6.98Q366.60-10.36 366.60-14.44L366.60-14.44ZM370.60-14.40Q370.60-11.44 372.04-8.92Q373.48-6.40 375.98-4.92Q378.48-3.44 381.44-3.44L381.44-3.44Q384.40-3.44 386.86-4.90Q389.32-6.36 390.74-8.90Q392.16-11.44 392.16-14.44L392.16-14.44Q392.16-17.44 390.72-20Q389.28-22.56 386.80-24.04Q384.32-25.52 381.36-25.52L381.36-25.52Q378.40-25.52 375.92-24.02Q373.44-22.52 372.02-19.96Q370.60-17.40 370.60-14.40L370.60-14.40Z M414.20-10.24Q414.20-8.32 415.12-6.78Q416.04-5.24 417.62-4.34Q419.20-3.44 421.12-3.44L421.12-3.44Q423.12-3.44 424.74-4.32Q426.36-5.20 427.28-6.76Q428.20-8.32 428.20-10.24L428.20-10.24L428.20-28.92L432-28.92L432-10.12Q432-7.04 430.56-4.66Q429.12-2.28 426.64-0.98Q424.16 0.32 421.12 0.32L421.12 0.32Q418.12 0.32 415.64-0.98Q413.16-2.28 411.74-4.66Q410.32-7.04 410.32-10.12L410.32-10.12L410.32-28.92L414.20-28.92L414.20-10.24Z M489.84-2.16Q488.44-1.24 486.30-0.46Q484.16 0.32 481.64 0.32L481.64 0.32Q477.20 0.32 473.82-1.64Q470.44-3.60 468.62-6.92Q466.80-10.24 466.80-14.24L466.80-14.24Q466.80-18.52 468.64-21.94Q470.48-25.36 473.74-27.30Q477.00-29.24 481.12-29.24L481.12-29.24Q483.56-29.24 485.68-28.60Q487.80-27.96 489.48-26.92L489.48-26.92L487.92-23.28Q484.60-25.52 481.24-25.52L481.24-25.52Q478.44-25.52 476.06-24.04Q473.68-22.56 472.26-20.02Q470.84-17.48 470.84-14.44L470.84-14.44Q470.84-11.32 472.14-8.80Q473.44-6.28 475.86-4.86Q478.28-3.44 481.44-3.44L481.44-3.44Q485.32-3.44 488.20-5.64L488.20-5.64L489.84-2.16Z M522.52 0L519.52-7.60L508.40-7.60L505.32 0L501.48 0L514.12-30.12L514.36-30.12L527.00 0L522.52 0ZM509.80-10.96L518.20-10.96L514.08-21.52L509.80-10.96Z M561.72-28.92L565.60-28.92L565.60 0.96L565.48 0.96L544.24-20.60L544.32 0L540.40 0L540.40-29.80L540.60-29.80L561.80-8L561.72-28.92Z M621.08-28.92L640.28-28.92L640.28-25.20L632.52-25.20L632.52 0L628.64 0L628.64-25.20L621.08-25.20L621.08-28.92Z M674.92 0L670.40 0L663.60-10.68Q663.28-10.64 662.64-10.64L662.64-10.64L658.36-10.64L658.36 0L654.48 0L654.48-28.92L662.20-28.92Q665.16-28.92 667.48-27.88Q669.80-26.84 671.12-24.82Q672.44-22.80 672.44-19.96L672.44-19.96Q672.44-17.28 671.26-15.04Q670.08-12.80 667.64-11.64L667.64-11.64L674.92 0ZM662.56-14.40Q665.68-14.40 667.06-16.04Q668.44-17.68 668.44-19.80L668.44-19.80Q668.44-21.08 667.86-22.32Q667.28-23.56 666.02-24.38Q664.76-25.20 662.84-25.20L662.84-25.20L658.36-25.20L658.36-14.40L662.56-14.40Z M692.40-10.24Q692.40-8.32 693.32-6.78Q694.24-5.24 695.82-4.34Q697.40-3.44 699.32-3.44L699.32-3.44Q701.32-3.44 702.94-4.32Q704.56-5.20 705.48-6.76Q706.40-8.32 706.40-10.24L706.40-10.24L706.40-28.92L710.20-28.92L710.20-10.12Q710.20-7.04 708.76-4.66Q707.32-2.28 704.84-0.98Q702.36 0.32 699.32 0.32L699.32 0.32Q696.32 0.32 693.84-0.98Q691.36-2.28 689.94-4.66Q688.52-7.04 688.52-10.12L688.52-10.12L688.52-28.92L692.40-28.92L692.40-10.24Z M741.12-23.76Q739.56-24.60 737.80-25.12Q736.04-25.64 734.48-25.64L734.48-25.64Q732.12-25.64 730.74-24.58Q729.36-23.52 729.36-21.68L729.36-21.68Q729.36-19.88 730.98-18.74Q732.60-17.60 735.60-16.48L735.60-16.48Q737.84-15.68 739.38-14.74Q740.92-13.80 741.94-12.14Q742.96-10.48 742.96-7.92L742.96-7.92Q742.96-5.60 741.80-3.72Q740.64-1.84 738.50-0.76Q736.36 0.32 733.48 0.32L733.48 0.32Q730.80 0.32 728.32-0.54Q725.84-1.40 723.96-2.72L723.96-2.72L725.68-5.80Q727.16-4.68 729.24-3.90Q731.32-3.12 733.12-3.12L733.12-3.12Q735.44-3.12 737.18-4.32Q738.92-5.52 738.92-7.88L738.92-7.88Q738.92-9.88 737.46-11.06Q736.00-12.24 733.36-13.28L733.36-13.28Q730.92-14.20 729.30-15.08Q727.68-15.96 726.52-17.50Q725.36-19.04 725.36-21.36L725.36-21.36Q725.36-24.76 727.74-26.86Q730.12-28.96 733.92-29.08L733.92-29.08Q738.60-29.08 742.60-26.76L742.60-26.76L741.12-23.76Z M755.12-28.92L774.32-28.92L774.32-25.20L766.56-25.20L766.56 0L762.68 0L762.68-25.20L755.12-25.20L755.12-28.92Z"/></g>
</svg>
</g><g opacity="1" transform="rotate(0 134.1814 97.1307)">
<svg width="30" height="23.7328" x="134.1814" y="97.1307" version="1.1" preserveAspectRatio="none" viewBox="25.9679012298584 30.976905822753903 48.06419372558594 38.023284912109375">
  <g transform="matrix(1 0 0 1 0 0)" class="icon1"><title>Artboard 265</title><path d="M32,69H68a2,2,0,0,0,2-1.67l4-24a2,2,0,0,0-3-2.07L58.93,48.17l-7.1-16a2,2,0,0,0-3.66,0l-7.1,16L29,41.26a2,2,0,0,0-3,2.07l4,24A2,2,0,0,0,32,69Zm9-16.26a2,2,0,0,0,1.61.16,2,2,0,0,0,1.21-1.09L50,37.92l6.17,13.89a2,2,0,0,0,1.21,1.09A2,2,0,0,0,59,52.74l10.34-5.91L66.31,65H33.69l-3-18.17Z"></path></g>
</svg>
</g><g opacity="1" transform="rotate(0 -100.2006 112.9971)">
<svg width="219.382" height="2" x="-100.2006" y="112.9971" version="1.1" preserveAspectRatio="none" viewBox="0 0 219.382 2">
  <defs><rect x="0" y="0" width="219.382" height="2" rx="0px" ry="0px" id="id-sr1BtIxl1766559883363"></rect></defs><use class="icon1 shapeStroke-str" style="stroke-width:0;" xlink:href="#id-sr1BtIxl1766559883363"></use>
</svg>
</g><g opacity="1" transform="rotate(0 179.1814 112.9971)">
<svg width="219.382" height="2" x="179.1814" y="112.9971" version="1.1" preserveAspectRatio="none" viewBox="0 0 219.382 2">
  <defs><rect x="0" y="0" width="219.382" height="2" rx="0px" ry="0px" id="id-R9TavoXY1766559883363"></rect></defs><use class="icon1 shapeStroke-str" style="stroke-width:0;" xlink:href="#id-R9TavoXY1766559883363"></use>
</svg>
</g><g opacity="1" transform="rotate(0 -100.2006 138.9971)">
<svg width="498.764" height="24" x="-100.2006" y="138.9971" version="1.1" preserveAspectRatio="none" viewBox="0.6 -28.76 609.3199999999999 29.320000000000004">
  <g transform="matrix(1 0 0 1 0 0)" class="companyName"><path id="id-D6z1nYkh24" d="M36-0.40L36-0.40L36.64-0.40L36.64 0L27.96 0L27.96-0.36L28.56-0.36Q29.24-0.36 29.72-0.90Q30.20-1.44 30.12-2.08L30.12-2.08L28.32-22.20L19.92-3.52Q18.80-1.08 18.56 0.56L18.56 0.56L18.16 0.56L7.92-21.64L6.20-2.08Q6.12-1.44 6.60-0.90Q7.08-0.36 7.72-0.36L7.72-0.36L8.36-0.36L8.36 0L0.60 0L0.60-0.40L1.24-0.40Q2.36-0.40 3.18-1.08Q4-1.76 4.16-2.92L4.16-2.92L7.16-28.56L7.56-28.56L18.72-4.44L29.64-28.56L30-28.56L33.08-2.92Q33.28-1.32 34.68-0.68L34.68-0.68Q35.28-0.40 36-0.40Z M67.84-0.40L67.84-0.40L68.16-0.40L68.16 0L59.16 0L59.16-0.40L59.52-0.40Q60.36-0.40 60.78-0.94Q61.20-1.48 61.20-1.96Q61.20-2.44 61.04-2.92L61.04-2.92L58.48-9.72L47.68-9.72L45-2.88Q44.84-2.40 44.84-1.94Q44.84-1.48 45.26-0.94Q45.68-0.40 46.52-0.40L46.52-0.40L46.88-0.40L46.88 0L38.84 0L38.84-0.40L39.20-0.40Q40.20-0.40 41.16-1.04Q42.12-1.68 42.72-2.92L42.72-2.92L51.76-24.44Q53.24-27.68 53.24-28.56L53.24-28.56L53.60-28.56L64.32-2.92Q64.88-1.68 65.84-1.04Q66.80-0.40 67.84-0.40ZM53.20-23.76L48.16-10.92L58-10.92L53.20-23.76Z M102.80-20.28L102.80-20.28Q102.80-18.52 102.08-17L102.08-17Q100.76-14.16 97.44-13.04L97.44-13.04Q96.28-12.64 95.44-12.64L95.44-12.64Q92.96-12.64 91.16-13.56L91.16-13.56L91.16-13.96Q94.08-13.32 96.56-14.60L96.56-14.60Q98.76-15.72 99.56-18.28L99.56-18.28Q99.80-19.08 99.80-19.80Q99.80-20.52 99.80-20.68L99.80-20.68Q99.72-23.48 98.32-25.14Q96.92-26.80 94.40-26.80L94.40-26.80L89.80-26.80L89.80-2.92Q89.84-1.88 90.58-1.14Q91.32-0.40 92.36-0.40L92.36-0.40L92.88-0.40L92.88 0L84.12 0L84.12-0.40L84.64-0.40Q85.68-0.40 86.42-1.14Q87.16-1.88 87.20-2.92L87.20-2.92L87.20-25.28Q87.08-26.28 86.36-26.94Q85.64-27.60 84.64-27.60L84.64-27.60L84.16-27.60L84.12-28L94.56-28Q98.40-28 100.60-25.94Q102.80-23.88 102.80-20.28Z M109-0.40L109.52-0.40Q110.56-0.40 111.30-1.14Q112.04-1.88 112.08-2.92L112.08-2.92L112.08-25.32Q111.96-26.28 111.24-26.94Q110.52-27.60 109.52-27.60L109.52-27.60L109.04-27.60L109-28L120.72-28Q121.96-28 123.42-28.24Q124.88-28.48 125.48-28.72L125.48-28.72L125.48-23.68L125.08-23.68L125.08-24.40Q125.08-25.36 124.42-26.04Q123.76-26.72 122.84-26.76L122.84-26.76L114.68-26.76L114.68-14.40L121.44-14.40Q122.24-14.44 122.80-15Q123.36-15.56 123.36-16.40L123.36-16.40L123.36-16.96L123.76-16.96L123.76-10.64L123.36-10.64L123.36-11.24Q123.36-12.04 122.82-12.60Q122.28-13.16 121.48-13.20L121.48-13.20L114.68-13.20L114.68-1.24L120.40-1.24Q123.36-1.24 124.92-2.56Q126.48-3.88 127.52-6.48L127.52-6.48L127.92-6.48L125.60 0L109 0L109-0.40Z M141.92-26.76L141.92-26.76L139.36-26.76L139.36-2.92Q139.36-1.88 140.10-1.14Q140.84-0.40 141.92-0.40L141.92-0.40L142.40-0.40L142.44 0L133.68 0L133.68-0.40L134.20-0.40Q135.24-0.40 135.98-1.12Q136.72-1.84 136.76-2.88L136.76-2.88L136.76-25.08Q136.72-26.12 135.98-26.86Q135.24-27.60 134.20-27.60L134.20-27.60L133.68-27.60L133.68-28L144.48-28Q148.12-28 150.20-25.98Q152.28-23.96 152.28-20.74Q152.28-17.52 150.30-15.18Q148.32-12.84 145.48-12.84L145.48-12.84Q146.08-12.56 146.90-11.74Q147.72-10.92 148.36-10.04L148.36-10.04Q151.80-5.12 152.84-3.98Q153.88-2.84 154.32-2.42Q154.76-2 155.28-1.60Q155.80-1.20 156.32-0.96L156.32-0.96Q157.48-0.40 158.80-0.40L158.80-0.40L158.80 0L156.60 0Q154.88 0 153.40-0.62Q151.92-1.24 151.18-1.90Q150.44-2.56 149.90-3.18Q149.36-3.80 146.92-7.32Q144.48-10.84 144.08-11.34Q143.68-11.84 143.24-12.32L143.24-12.32Q141.96-13.68 140.68-13.68L140.68-13.68L140.68-14.08Q141-14.04 141.52-14.04Q142.04-14.04 142.80-14.08L142.80-14.08Q147.76-14.20 149.04-18.24L149.04-18.24Q149.28-19.04 149.28-19.74Q149.28-20.44 149.28-20.64L149.28-20.64Q149.20-23.32 147.88-24.96Q146.56-26.60 144.32-26.72L144.32-26.72Q143.36-26.76 141.92-26.76Z M178.04-28.72L178.04-27.56L178.04-24.20L177.64-24.20L177.64-24.80Q177.64-25.60 177.08-26.18Q176.52-26.76 175.68-26.76L175.68-26.76L167.24-26.76L167.24-14.40L174.00-14.40Q174.80-14.44 175.36-15Q175.92-15.56 175.92-16.36L175.92-16.36L175.92-16.96L176.32-16.96L176.32-10.64L175.92-10.64L175.92-11.24Q175.92-12.04 175.38-12.60Q174.84-13.16 174.04-13.20L174.04-13.20L167.24-13.20L167.24-2.92Q167.24-1.88 168.00-1.14Q168.76-0.40 169.80-0.40L169.80-0.40L170.32-0.40L170.32 0L161.56 0L161.56-0.40L162.08-0.40Q163.12-0.40 163.86-1.14Q164.60-1.88 164.64-2.92L164.64-2.92L164.64-25.32Q164.64-26.28 163.86-26.94Q163.08-27.60 162.08-27.60L162.08-27.60L161.60-27.60L161.56-28L173.28-28Q174.52-28 175.98-28.24Q177.44-28.48 178.04-28.72L178.04-28.72Z M185.20-0.40L185.72-0.40Q186.76-0.40 187.50-1.14Q188.24-1.88 188.28-2.92L188.28-2.92L188.28-25.32Q188.16-26.28 187.44-26.94Q186.72-27.60 185.72-27.60L185.72-27.60L185.24-27.60L185.20-28L196.92-28Q198.16-28 199.62-28.24Q201.08-28.48 201.68-28.72L201.68-28.72L201.68-23.68L201.28-23.68L201.28-24.40Q201.28-25.36 200.62-26.04Q199.96-26.72 199.04-26.76L199.04-26.76L190.88-26.76L190.88-14.40L197.64-14.40Q198.44-14.44 199-15Q199.56-15.56 199.56-16.40L199.56-16.40L199.56-16.96L199.96-16.96L199.96-10.64L199.56-10.64L199.56-11.24Q199.56-12.04 199.02-12.60Q198.48-13.16 197.68-13.20L197.68-13.20L190.88-13.20L190.88-1.24L196.60-1.24Q199.56-1.24 201.12-2.56Q202.68-3.88 203.72-6.48L203.72-6.48L204.12-6.48L201.80 0L185.20 0L185.20-0.40Z M223.76 0.56Q217.44 0.52 213.46-3.48Q209.48-7.48 209.48-14.02Q209.48-20.56 213.46-24.56Q217.44-28.56 224-28.56L224-28.56Q229.36-28.56 233.48-25.84L233.48-25.84L234.28-20.20L233.92-20.20Q233.04-23.64 230.36-25.50Q227.68-27.36 224-27.36L224-27.36Q218.76-27.36 215.62-23.72Q212.48-20.08 212.48-14.08Q212.48-8.08 215.58-4.42Q218.68-0.76 223.76-0.64L223.76-0.64Q228.24-0.64 231.24-3.08L231.24-3.08Q234.48-5.72 235.16-11.68L235.16-11.68L235.48-11.68L235-5.40Q231.36 0.56 223.76 0.56L223.76 0.56Z M263.04-23.76L263.04-24.44Q263.04-25.40 262.36-26.10Q261.68-26.80 260.76-26.84L260.76-26.84L253.16-26.84L253.16-2.88Q253.20-1.84 253.94-1.12Q254.68-0.40 255.72-0.40L255.72-0.40L256.24-0.40L256.24 0L247.48 0L247.48-0.40L248.00-0.40Q249.04-0.40 249.78-1.12Q250.52-1.84 250.56-2.84L250.56-2.84L250.56-26.84L242.96-26.84Q242.00-26.80 241.34-26.10Q240.68-25.40 240.68-24.44L240.68-24.44L240.68-23.76L240.28-23.72L240.28-28.76Q240.88-28.52 242.36-28.28Q243.84-28.04 245.08-28.04L245.08-28.04L258.60-28.04Q260.56-28.04 261.86-28.34Q263.16-28.64 263.44-28.76L263.44-28.76L263.44-23.72L263.04-23.76Z M297.08-28.72L297.08-27.56L297.08-24.20L296.68-24.20L296.68-24.80Q296.68-25.60 296.12-26.18Q295.56-26.76 294.72-26.76L294.72-26.76L286.28-26.76L286.28-14.40L293.04-14.40Q293.84-14.44 294.40-15Q294.96-15.56 294.96-16.36L294.96-16.36L294.96-16.96L295.36-16.96L295.36-10.64L294.96-10.64L294.96-11.24Q294.96-12.04 294.42-12.60Q293.88-13.16 293.08-13.20L293.08-13.20L286.28-13.20L286.28-2.92Q286.28-1.88 287.04-1.14Q287.80-0.40 288.84-0.40L288.84-0.40L289.36-0.40L289.36 0L280.60 0L280.60-0.40L281.12-0.40Q282.16-0.40 282.90-1.14Q283.64-1.88 283.68-2.92L283.68-2.92L283.68-25.32Q283.68-26.28 282.90-26.94Q282.12-27.60 281.12-27.60L281.12-27.60L280.64-27.60L280.60-28L292.32-28Q293.56-28 295.02-28.24Q296.48-28.48 297.08-28.72L297.08-28.72Z M304.24-0.40L304.76-0.40Q305.80-0.40 306.54-1.14Q307.28-1.88 307.32-2.92L307.32-2.92L307.32-25.12Q307.28-26.16 306.54-26.88Q305.80-27.60 304.76-27.60L304.76-27.60L304.24-27.60L304.24-28L313.00-28L313.00-27.60L312.48-27.60Q311.44-27.60 310.70-26.88Q309.96-26.16 309.92-25.12L309.92-25.12L309.92-2.92Q309.92-1.88 310.68-1.14Q311.44-0.40 312.48-0.40L312.48-0.40L313.00-0.40L313.00 0L304.24 0L304.24-0.40Z M343.72-0.40L343.72-0.40L344.28-0.40L344.28 0L334.52 0L334.52-0.40L335-0.40Q335.88-0.40 336.36-1.20L336.36-1.20Q336.64-1.64 336.64-2.04Q336.64-2.44 336.44-2.84L336.44-2.84L330.28-12.56L324.12-2.88Q323.88-2.48 323.88-2.06Q323.88-1.64 324.16-1.24L324.16-1.24Q324.68-0.40 325.52-0.40L325.52-0.40L326.04-0.40L326.04 0L316.96 0L316.96-0.40L317.52-0.40Q318.72-0.40 319.80-1.08Q320.88-1.76 321.60-2.76L321.60-2.76L329.24-14.16L322.24-25.24Q321.28-26.64 319.80-27.28L319.80-27.28Q319-27.60 318.20-27.60L318.20-27.60L317.64-27.60L317.64-28L327.32-28L327.32-27.60L326.84-27.60Q326-27.60 325.48-26.80L325.48-26.80Q325.20-26.36 325.20-25.96Q325.20-25.56 325.40-25.16L325.40-25.16L330.92-16.52L336.36-25.12Q336.60-25.52 336.60-25.94Q336.60-26.36 336.36-26.76L336.36-26.76Q335.88-27.60 335-27.60L335-27.60L334.52-27.60L334.52-28L343.52-28L343.52-27.60L342.96-27.60Q341.76-27.60 340.70-26.92Q339.64-26.24 338.92-25.24L338.92-25.24L331.92-14.92L339.68-2.72Q340.64-1.36 342.12-0.72L342.12-0.72Q342.92-0.40 343.72-0.40Z M381.40-23.76L381.40-24.44Q381.40-25.40 380.72-26.10Q380.04-26.80 379.12-26.84L379.12-26.84L371.52-26.84L371.52-2.88Q371.56-1.84 372.30-1.12Q373.04-0.40 374.08-0.40L374.08-0.40L374.60-0.40L374.60 0L365.84 0L365.84-0.40L366.36-0.40Q367.40-0.40 368.14-1.12Q368.88-1.84 368.92-2.84L368.92-2.84L368.92-26.84L361.32-26.84Q360.36-26.80 359.70-26.10Q359.04-25.40 359.04-24.44L359.04-24.44L359.04-23.76L358.64-23.72L358.64-28.76Q359.24-28.52 360.72-28.28Q362.20-28.04 363.44-28.04L363.44-28.04L376.96-28.04Q378.92-28.04 380.22-28.34Q381.52-28.64 381.80-28.76L381.80-28.76L381.80-23.72L381.40-23.76Z M386.96-0.40L387.48-0.40Q388.52-0.40 389.26-1.14Q390.00-1.88 390.04-2.92L390.04-2.92L390.04-25.32Q389.92-26.28 389.20-26.94Q388.48-27.60 387.48-27.60L387.48-27.60L387.00-27.60L386.96-28L398.68-28Q399.92-28 401.38-28.24Q402.84-28.48 403.44-28.72L403.44-28.72L403.44-23.68L403.04-23.68L403.04-24.40Q403.04-25.36 402.38-26.04Q401.72-26.72 400.80-26.76L400.80-26.76L392.64-26.76L392.64-14.40L399.40-14.40Q400.20-14.44 400.76-15Q401.32-15.56 401.32-16.40L401.32-16.40L401.32-16.96L401.72-16.96L401.72-10.64L401.32-10.64L401.32-11.24Q401.32-12.04 400.78-12.60Q400.24-13.16 399.44-13.20L399.44-13.20L392.64-13.20L392.64-1.24L398.36-1.24Q401.32-1.24 402.88-2.56Q404.44-3.88 405.48-6.48L405.48-6.48L405.88-6.48L403.56 0L386.96 0L386.96-0.40Z M425.52 0.56Q419.20 0.52 415.22-3.48Q411.24-7.48 411.24-14.02Q411.24-20.56 415.22-24.56Q419.20-28.56 425.76-28.56L425.76-28.56Q431.12-28.56 435.24-25.84L435.24-25.84L436.04-20.20L435.68-20.20Q434.80-23.64 432.12-25.50Q429.44-27.36 425.76-27.36L425.76-27.36Q420.52-27.36 417.38-23.72Q414.24-20.08 414.24-14.08Q414.24-8.08 417.34-4.42Q420.44-0.76 425.52-0.64L425.52-0.64Q430.00-0.64 433.00-3.08L433.00-3.08Q436.24-5.72 436.92-11.68L436.92-11.68L437.24-11.68L436.76-5.40Q433.12 0.56 425.52 0.56L425.52 0.56Z M462.60-0.40L463.12-0.40Q464.16-0.40 464.90-1.12Q465.64-1.84 465.68-2.88L465.68-2.88L465.68-13.24L449.32-13.24L449.32-2.92Q449.32-1.88 450.08-1.14Q450.84-0.40 451.88-0.40L451.88-0.40L452.40-0.40L452.40 0L443.64 0L443.64-0.40L444.16-0.40Q445.20-0.40 445.94-1.14Q446.68-1.88 446.72-2.92L446.72-2.92L446.72-25.12Q446.68-26.16 445.94-26.88Q445.20-27.60 444.16-27.60L444.16-27.60L443.64-27.60L443.64-28L452.40-28L452.40-27.60L451.88-27.60Q450.84-27.60 450.10-26.88Q449.36-26.16 449.32-25.12L449.32-25.12L449.32-14.44L465.68-14.44L465.68-25.12Q465.64-26.56 464.40-27.28L464.40-27.28Q463.80-27.60 463.12-27.60L463.12-27.60L462.60-27.60L462.60-28L471.36-28L471.36-27.60L470.84-27.60Q469.80-27.60 469.06-26.86Q468.32-26.12 468.28-25.08L468.28-25.08L468.28-2.92Q468.32-1.88 469.06-1.14Q469.80-0.40 470.84-0.40L470.84-0.40L471.36-0.40L471.36 0L462.60 0L462.60-0.40Z M507.60-27.60L506.88-27.60Q505.88-27.60 505.16-26.90Q504.44-26.20 504.40-25.20L504.40-25.20L504.40-4.56Q504.40-2.24 504.68-0.16L504.68-0.16L504.76 0.56L504.40 0.56L482.60-22.72L482.60-2.80Q482.64-1.40 483.84-0.72L483.84-0.72Q484.40-0.40 485.04-0.40L485.04-0.40L485.80-0.40L485.80 0L477.56 0L477.56-0.40L478.32-0.40Q479.32-0.40 480.04-1.10Q480.76-1.80 480.76-2.84L480.76-2.84L480.76-23.60Q480.76-26.04 480.48-27.96L480.48-27.96L480.40-28.60L480.80-28.60L502.60-5.32L502.60-25.16Q502.56-26.20 501.84-26.90Q501.12-27.60 500.12-27.60L500.12-27.60L499.36-27.60L499.36-28L507.60-28L507.60-27.60Z M513.40-0.40L513.92-0.40Q514.96-0.40 515.70-1.14Q516.44-1.88 516.48-2.92L516.48-2.92L516.48-25.12Q516.44-26.16 515.70-26.88Q514.96-27.60 513.92-27.60L513.92-27.60L513.40-27.60L513.40-28L522.16-28L522.16-27.60L521.64-27.60Q520.60-27.60 519.86-26.88Q519.12-26.16 519.08-25.12L519.08-25.12L519.08-2.92Q519.08-1.88 519.84-1.14Q520.60-0.40 521.64-0.40L521.64-0.40L522.16-0.40L522.16 0L513.40 0L513.40-0.40Z M542.40 0.56Q536.08 0.52 532.10-3.48Q528.12-7.48 528.12-14.02Q528.12-20.56 532.10-24.56Q536.08-28.56 542.64-28.56L542.64-28.56Q548-28.56 552.12-25.84L552.12-25.84L552.92-20.20L552.56-20.20Q551.68-23.64 549-25.50Q546.32-27.36 542.64-27.36L542.64-27.36Q537.40-27.36 534.26-23.72Q531.12-20.08 531.12-14.08Q531.12-8.08 534.22-4.42Q537.32-0.76 542.40-0.64L542.40-0.64Q546.88-0.64 549.88-3.08L549.88-3.08Q553.12-5.72 553.80-11.68L553.80-11.68L554.12-11.68L553.64-5.40Q550 0.56 542.40 0.56L542.40 0.56Z M586.72-0.40L586.72-0.40L587.04-0.40L587.04 0L578.04 0L578.04-0.40L578.40-0.40Q579.24-0.40 579.66-0.94Q580.08-1.48 580.08-1.96Q580.08-2.44 579.92-2.92L579.92-2.92L577.36-9.72L566.56-9.72L563.88-2.88Q563.72-2.40 563.72-1.94Q563.72-1.48 564.14-0.94Q564.56-0.40 565.40-0.40L565.40-0.40L565.76-0.40L565.76 0L557.72 0L557.72-0.40L558.08-0.40Q559.08-0.40 560.04-1.04Q561-1.68 561.60-2.92L561.60-2.92L570.64-24.44Q572.12-27.68 572.12-28.56L572.12-28.56L572.48-28.56L583.20-2.92Q583.76-1.68 584.72-1.04Q585.68-0.40 586.72-0.40ZM572.08-23.76L567.04-10.92L576.88-10.92L572.08-23.76Z M591-0.40L591.52-0.40Q592.56-0.40 593.30-1.14Q594.04-1.88 594.08-2.92L594.08-2.92L594.08-25.08Q594.04-26.12 593.30-26.86Q592.56-27.60 591.52-27.60L591.52-27.60L591-27.60L591-28L599.76-28L599.76-27.60L599.24-27.60Q597.80-27.60 597.04-26.36L597.04-26.36Q596.68-25.76 596.68-25.08L596.68-25.08L596.68-1.24L602.40-1.24Q605.36-1.24 606.92-2.56Q608.48-3.88 609.52-6.48L609.52-6.48L609.92-6.48L607.60 0L591 0L591-0.40Z"/></g>
</svg>
</g></svg></svg>